<svg width="55" height="184" viewBox="0 0 55 184" fill="none" xmlns="http://www.w3.org/2000/svg">
<path d="M47.9977 163.198C46.9417 163.198 45.8857 163.169 44.8296 163.219C44.5382 163.234 44.2605 163.488 43.9759 163.632C44.1508 163.869 44.2811 164.192 44.5108 164.332C45.6388 165.028 46.7977 165.67 47.9325 166.351C48.2754 166.56 48.6285 166.793 48.8823 167.101C49.4206 167.758 49.9691 168.44 49.6331 169.43C49.3143 170.355 48.5737 170.646 47.7645 170.775C45.4434 171.145 43.1119 171.037 40.8936 170.316C38.0136 169.383 35.2055 168.21 32.3666 167.134C31.9655 166.983 31.578 166.735 31.1666 166.671C30.8409 166.621 30.3643 166.671 30.1757 166.886C29.9872 167.105 29.922 167.675 30.0626 167.93C30.426 168.59 30.8889 169.211 31.3963 169.76C34.1358 172.738 37.561 174.352 41.3325 175.404C44.7816 176.362 48.2754 176.39 51.7863 176.401C52.6675 176.401 52.8183 176.58 52.3246 177.355C51.7589 178.242 51.0389 179.024 50.4114 179.867C49.7497 180.753 49.0468 181.621 48.5017 182.583C48.1588 183.189 47.792 183.419 47.1474 183.408C41.8399 183.318 37.2764 181.428 33.6249 177.327C32.8912 176.501 32.0238 176.157 31.002 176.494C29.5072 176.986 28.026 177.535 26.5517 178.098C23.1231 179.411 19.7013 180.746 16.2796 182.073C15.4807 182.386 14.7024 182.773 13.8864 183.017C12.2612 183.498 11.4418 183.121 10.6326 181.582C10.084 180.538 9.56633 179.472 9.07261 178.396C8.78117 177.761 8.4006 177.273 7.68744 177.237C6.93658 177.201 6.508 177.685 6.124 178.295C5.1537 179.838 4.15597 181.367 3.15481 182.888C2.92853 183.232 2.67481 183.566 2.37995 183.842C2.2428 183.971 1.9788 183.953 1.77308 184C1.7388 183.813 1.64279 183.609 1.68051 183.44C2.33195 180.47 2.9971 177.502 3.66225 174.535C4.48512 170.858 5.00627 167.162 4.88284 163.356C4.78341 160.284 4.97541 157.202 4.97884 154.128C4.97884 150.755 4.94112 147.379 4.86226 144.006C4.80741 141.588 4.63598 139.174 4.55369 136.755C4.50226 135.223 4.84169 134.836 6.28171 134.969C7.61201 135.091 8.93546 135.345 10.252 135.614C10.6806 135.701 11.1401 135.937 11.4589 136.246C12.1892 136.949 13.0292 137.182 13.9755 137.125C17.2224 136.928 20.4659 136.626 23.7128 136.551C26.8191 136.476 29.9323 136.615 33.0421 136.687C34.4101 136.719 35.7781 136.802 37.1461 136.885C38.2467 136.949 39.1621 136.547 39.8993 135.718C40.9827 134.499 42.2376 134.179 43.6982 134.868C45.3336 135.64 46.9931 136.361 48.5874 137.218C49.8388 137.893 49.7943 138.47 48.8 139.511C48.392 139.938 48.056 140.612 47.9977 141.204C47.8742 142.446 47.9154 143.709 47.9668 144.961C48.0045 145.868 47.8022 146.568 47.0445 147.113C46.5371 147.479 46.1222 147.996 45.6902 148.47C45.1348 149.083 45.1999 149.7 45.7622 150.267C46.6468 151.157 47.5657 152.007 48.4228 152.926C49.4411 154.024 49.4274 154.425 48.4777 155.566C47.7337 156.463 47.9017 157.274 48.9097 158.035C49.9246 158.799 50.9051 159.617 51.8789 160.435C52.4309 160.898 52.7155 161.486 52.4446 162.254C52.1909 162.968 51.6423 163.115 51.0011 163.112C50 163.108 49.0023 163.112 48.0011 163.112C48.0011 163.137 48.0011 163.162 48.0011 163.187L47.9977 163.198ZM26.3083 138.503C26.3014 138.352 26.298 138.205 26.2911 138.054C22.1493 138.46 18.0041 138.836 13.8658 139.285C12.3881 139.446 11.8669 140.365 12.0589 142.141C12.2235 143.673 12.6898 144.039 14.3218 143.927C14.6064 143.91 14.891 143.892 15.1755 143.863C22.2933 143.095 29.4146 143.135 36.5358 143.798C39.2204 144.049 39.5221 143.752 39.4296 140.924C39.3884 139.701 38.9221 139.12 37.7495 138.962C36.3644 138.775 34.9724 138.564 33.5804 138.521C31.1597 138.449 28.7357 138.499 26.3117 138.499L26.3083 138.503ZM32.7266 163.409C32.7266 163.409 32.7266 163.388 32.7266 163.374C30.6729 163.374 28.6191 163.305 26.5688 163.395C25.0328 163.463 23.8842 164.529 23.6202 166.039C23.2122 168.346 23.2191 170.671 23.5962 172.985C23.7231 173.768 24.1619 174.363 24.9745 174.288C26.6957 174.126 28.4134 173.897 30.1243 173.646C30.6386 173.57 30.7175 173.14 30.5083 172.68C30.1517 171.898 29.7197 171.148 29.4386 170.341C29.1197 169.43 28.7323 168.468 28.7289 167.525C28.722 166.208 29.8466 165.555 31.3175 165.903C33.1243 166.334 34.8969 166.915 36.7073 167.313C38.2364 167.647 39.793 167.916 41.3496 168.009C42.8205 168.099 43.3416 166.994 42.5119 165.702C41.5142 164.152 40.0536 163.438 38.2878 163.417C36.433 163.395 34.5815 163.413 32.7266 163.413V163.409ZM16.7904 169.609C16.835 169.609 16.8761 169.609 16.9207 169.609C16.9207 167.937 16.9619 166.265 16.907 164.597C16.8693 163.474 16.5298 163.183 15.4841 163.097C14.8875 163.047 14.291 162.997 13.691 162.979C11.7161 162.925 11.1332 163.449 10.9412 165.512C10.6909 168.174 10.0738 170.739 9.18575 173.244C8.60631 174.876 8.79146 175.447 10.4406 175.676C12.0555 175.899 13.7252 175.726 15.3675 175.658C16.4613 175.612 16.7767 175.221 16.7904 174.09C16.8041 172.598 16.7938 171.105 16.7938 169.609H16.7904ZM11.8909 149.697C11.8909 149.697 11.9252 149.697 11.9424 149.697C11.9424 150.292 11.9389 150.891 11.9424 151.487C11.9561 152.969 12.4704 153.579 13.8932 153.611C14.9458 153.636 16.0053 153.568 17.0544 153.471C17.963 153.385 18.3779 152.786 18.3333 151.81C18.275 150.529 18.2167 149.248 18.1824 147.967C18.1207 145.632 17.6133 145.061 15.3984 145.237C12.8612 145.438 11.5172 145.879 11.8635 149.159C11.8806 149.338 11.8806 149.517 11.8875 149.697H11.8909ZM40.7496 154.465V154.547C40.0913 154.547 39.4364 154.53 38.7816 154.551C37.1873 154.605 36.3987 155.617 36.6318 157.271C36.7038 157.769 36.673 158.304 36.8341 158.767C37.0158 159.291 37.2421 159.997 37.6467 160.198C38.9118 160.83 40.4067 161.024 41.5827 160.277C42.6902 159.578 43.6022 158.43 44.3908 157.317C45.2514 156.105 44.5759 154.763 43.1393 154.591C42.3473 154.494 41.545 154.504 40.7496 154.465ZM15.2373 160.812C15.6658 160.812 16.091 160.819 16.5196 160.808C17.7539 160.772 18.4602 160.03 18.4739 158.734C18.4807 158.2 18.4636 157.662 18.4259 157.127C18.347 155.993 17.747 155.398 16.6567 155.405C15.6624 155.412 14.6681 155.459 13.6738 155.52C12.9092 155.566 12.3846 155.983 12.2166 156.783C12.1001 157.332 12.0109 157.888 11.9561 158.447C11.8189 159.911 12.5595 160.776 13.9618 160.812C14.387 160.823 14.8155 160.812 15.2441 160.812H15.2373ZM27.3848 154.634C27.3848 154.634 27.3848 154.652 27.3848 154.659C27.2134 154.659 27.042 154.659 26.874 154.659C25.4477 154.677 24.8031 155.423 24.9162 156.919C24.9505 157.393 24.9642 157.87 24.9917 158.343C25.1048 160.234 26.7917 161.343 28.5163 160.661C29.4352 160.299 29.85 159.617 29.8329 158.609C29.8226 157.96 29.85 157.31 29.9117 156.664C30.0077 155.692 29.5003 154.888 28.5711 154.702C28.1871 154.626 27.7826 154.655 27.3848 154.634ZM36.697 150.931C36.697 152.136 37.033 152.693 37.9656 152.987C38.7747 153.241 39.4981 153.033 40.0467 152.348C40.6296 151.62 41.1885 150.866 41.7405 150.113C42.4913 149.087 42.1313 147.799 40.9759 147.332C39.9884 146.93 38.9667 147.268 38.3393 148.172C38.1233 148.48 37.897 148.814 37.6021 149.022C36.9095 149.514 36.649 150.177 36.7004 150.931H36.697ZM27.3197 153.087C28.8831 153.299 29.9974 152.323 29.6237 150.759C29.5449 150.421 29.6066 150.048 29.5997 149.69C29.5654 148.161 28.2763 147.296 26.9906 148.018C26.3563 148.376 25.6088 148.843 25.3242 149.463C24.9917 150.195 24.9334 151.182 25.0705 152C25.2077 152.811 26.0374 152.994 26.7814 153.051C26.9803 153.066 27.1791 153.076 27.3197 153.084V153.087Z" fill="white"/>
<path d="M3.94256 16.5699C7.26146 16.2183 10.5906 15.9385 13.8993 15.4864C15.8227 15.2245 16.1724 14.5787 15.9359 12.5408C15.8604 11.8914 15.7439 11.242 15.5896 10.607C15.2193 9.09648 14.0878 8.056 12.6238 8.12776C9.97349 8.25692 7.33346 8.5296 4.68657 8.74128C4.34714 8.76998 3.96656 8.89197 3.67855 8.76998C3.35626 8.63364 3.12312 8.27127 2.85226 8.00936C3.14369 7.72951 3.40084 7.2882 3.73341 7.20927C4.41914 7.04782 5.14943 7.09805 5.85916 7.03706C10.9541 6.59575 16.0456 6.15445 21.1405 5.6952C22.5462 5.56963 22.7519 5.34718 22.7897 3.87258C22.8068 3.1299 22.7279 2.38004 22.6731 1.63736C22.5771 0.345736 22.8582 -0.102744 24.072 0.0192428C25.9988 0.216574 27.9086 0.578946 29.8218 0.909027C30.576 1.04178 31.3475 1.19247 32.0469 1.49384C32.9384 1.87774 33.0687 2.49126 32.6092 3.38105C32.4858 3.61785 32.3281 3.8367 32.2252 4.08068C31.8584 4.96687 32.1532 5.67727 33.0721 5.80643C35.1361 6.09704 37.2104 6.36254 39.2882 6.50247C40.447 6.5814 41.2425 5.63421 42.1271 4.99199C43.1076 4.27801 44.0745 3.52815 45.1271 2.94692C45.5214 2.72806 46.2208 2.75676 46.6288 2.9828C48.278 3.89411 49.4814 5.35795 50.558 6.90789C51.2746 7.94119 51.0037 8.58342 49.8654 8.98166C48.9706 9.29381 48.6894 9.94321 49.2003 10.7684C49.5192 11.2815 49.958 11.7551 50.4346 12.1067C52.19 13.3947 53.3283 15.2209 54.4426 17.0579C54.9329 17.8687 54.6312 18.6617 53.7295 18.8267C53.0472 18.9523 52.31 18.8805 51.614 18.7801C49.7797 18.5146 47.9523 18.1737 46.1214 17.8867C45.7614 17.8293 45.3054 17.7611 45.0311 17.9369C44.6025 18.2132 44.0917 18.6401 43.9888 19.0958C43.8894 19.5407 44.1705 20.1578 44.4448 20.5919C44.6814 20.9686 45.1442 21.1911 45.5008 21.4925C46.214 22.0952 46.3785 22.9671 45.8025 23.6918C45.1888 24.4596 45.0002 25.3314 45.0242 26.2715C45.0654 27.9147 45.1305 29.5543 45.23 31.194C45.278 31.9941 45.2128 32.7009 44.7328 33.3897C43.9579 34.502 44.1911 35.4563 45.3637 36.1237C45.9877 36.4789 46.6528 36.7659 47.3283 36.9955C49.3443 37.6844 51.014 38.8827 52.2723 40.6587C53.3283 42.1512 53.5375 43.8447 53.0541 45.6063C52.6323 47.1419 51.446 47.8487 50.0677 48.0891C48.1717 48.4192 46.4437 48.0066 45.0997 46.3992C44.2288 45.3588 43.0494 45.5274 42.4562 46.7257C41.5373 48.5878 39.9739 49.5278 38.0882 49.8113C36.2024 50.0947 34.2927 50.2131 32.3864 50.3207C30.5349 50.4248 28.68 50.5037 26.8286 50.4535C24.4045 50.3889 21.9736 50.2885 19.5668 50.005C18.3462 49.8615 17.1324 49.3807 15.9941 48.8677C15.0958 48.4622 14.4753 47.7016 14.3038 46.5571C14.1393 45.452 12.8261 44.8457 11.7735 45.3659C11.2352 45.6314 10.7004 46.0943 10.3678 46.6073C9.47977 47.9886 8.2729 48.7816 6.73688 49.0399C6.06144 49.1547 5.37229 49.1511 4.69 49.2265C2.57111 49.4668 0.558514 47.0056 1.13795 44.6663C1.47738 43.2922 2.41682 42.528 3.52084 41.9073C4.04885 41.6095 4.60428 41.3727 5.15972 41.1323C6.46945 40.569 7.1826 39.4675 7.45689 38.1006C7.66604 37.0637 8.11176 36.2636 8.92091 35.6788C9.63406 35.1621 9.82606 34.4876 9.79178 33.5942C9.71978 31.6281 9.75749 29.6548 9.75406 27.6851C9.74721 24.9978 9.76778 22.3105 9.71978 19.6232C9.69235 18.1809 9.13348 17.6714 7.77918 17.8185C6.16087 17.9943 4.55628 18.2993 2.93797 18.4751C2.21454 18.554 1.4431 18.572 0.750517 18.389C0.42137 18.3029 0.0339359 17.6965 0.00307835 17.2983C-0.0449223 16.7099 0.476227 16.4802 1.02138 16.4767C1.99168 16.4767 2.96197 16.4767 3.93227 16.4767L3.94942 16.5699H3.94256ZM27.48 25.8194C30.4458 25.8194 33.4149 25.8266 36.3807 25.8158C37.5567 25.8122 38.0299 25.414 38.2081 24.3735C38.4242 23.1142 38.0127 22.2423 36.9533 21.8764C36.4733 21.7113 35.9521 21.6037 35.4515 21.6037C30.0618 21.5857 24.6685 21.5857 19.2788 21.5965C18.7679 21.5965 18.2502 21.6575 17.753 21.7723C16.577 22.0414 16.0079 23.0424 16.2959 24.2587C16.5393 25.3063 17.2524 25.8086 18.5862 25.8158C21.5519 25.8302 24.5177 25.8194 27.4834 25.8194H27.48ZM27.3086 27.5308C27.3086 27.5308 27.3086 27.5308 27.3086 27.5272C26.7669 27.5272 26.2251 27.5272 25.6834 27.5272C23.1737 27.52 20.6605 27.4698 18.1507 27.52C16.7896 27.5487 16.2239 28.2771 16.289 29.6297C16.3507 30.8711 17.0262 31.5097 18.3016 31.5097C24.0445 31.5097 29.784 31.5205 35.527 31.4954C36.0756 31.4954 36.6687 31.3626 37.1659 31.1258C38.1361 30.6666 38.4584 29.9311 38.263 28.9623C38.071 28.008 37.591 27.5559 36.4664 27.5416C33.4149 27.5057 30.36 27.5272 27.3086 27.5272V27.5308ZM31.9612 41.4229C31.9509 43.163 33.3635 44.3685 34.8172 44.0277C36.2298 43.6976 37.3133 42.8257 37.7899 41.4552C38.3727 39.7904 38.719 38.0288 39.1099 36.2959C39.2676 35.5963 38.839 35.1837 38.215 34.9899C37.519 34.771 37.0493 34.3369 36.7613 33.605C36.6276 33.2677 36.2333 32.83 35.9384 32.8085C34.5292 32.7224 33.0892 32.604 31.7006 32.8085C30.5658 32.9771 30.288 34.1647 30.9566 35.1657C31.2001 35.5317 31.4023 35.9371 31.6903 36.26C32.5509 37.2323 32.7258 38.3481 32.4241 39.5859C32.2629 40.2497 32.0881 40.9063 31.9578 41.4193L31.9612 41.4229ZM27.6274 7.28462C26.4651 7.43172 25.3474 7.47836 24.2708 7.7331C22.7142 8.09906 22.4742 8.9422 23.1668 10.4383C23.616 11.4106 23.9588 12.4798 24.1165 13.5454C24.24 14.3921 24.5383 14.8442 25.296 15.0487C26.76 15.4434 28.2377 15.4685 29.6915 15.0846C30.0652 14.9877 30.5246 14.5966 30.6515 14.2271C31.1486 12.8027 31.5566 11.3425 31.9406 9.87862C32.2218 8.80945 31.8172 8.02012 30.7818 7.76539C29.7395 7.51065 28.656 7.43531 27.624 7.28462H27.6274ZM43.1316 8.19952C41.5031 8.23898 41.023 8.6767 40.9339 10.302C40.8688 11.4967 40.6082 11.7515 39.5282 12.1067C38.7293 12.3686 37.8961 12.6771 37.2344 13.1902C36.8676 13.47 36.631 14.2414 36.703 14.733C36.7544 15.0918 37.3647 15.5151 37.7933 15.6335C38.8939 15.9349 40.0253 16.1681 41.1568 16.2578C41.7705 16.308 42.4871 16.1538 43.0151 15.8308C43.7385 15.3931 44.3145 14.6935 44.9728 14.1338C45.8231 13.4126 46.6494 12.6377 47.5751 12.0313C48.3397 11.529 48.2026 10.8438 48.2094 10.1477C48.2163 9.52343 47.9214 9.13953 47.3248 9.02472C45.9294 8.75204 44.5305 8.47578 43.1351 8.19952H43.1316ZM20.8936 41.2148C20.9348 41.6095 20.9828 42.2015 21.0685 42.7935C21.1885 43.6151 21.5691 44.3936 22.3302 44.5515C23.2765 44.7452 24.3291 44.8278 25.2514 44.591C26.6914 44.2178 27.12 42.7038 26.496 41.3332C26.1394 40.5511 25.9234 39.6685 25.8 38.8038C25.6423 37.7023 25.3508 37.2861 24.3463 37.1857C22.2342 36.974 20.8045 38.5598 20.8936 41.2184V41.2148ZM14.609 38.9222C14.657 38.9186 14.705 38.915 14.753 38.9114C14.6467 37.9355 14.5644 36.9596 14.4238 35.9909C14.3861 35.7182 14.2318 35.4133 14.0398 35.2303C13.4638 34.6814 12.089 34.6491 11.2729 35.1119C10.4946 35.5532 9.73006 36.7767 9.93235 37.5337C10.2958 38.8755 10.7346 40.203 11.2489 41.4911C11.5678 42.2876 12.7164 42.7325 13.5358 42.5208C14.3964 42.2983 14.5678 41.57 14.6021 40.7914C14.6296 40.1707 14.609 39.5465 14.609 38.9222ZM44.2254 40.465C44.3934 39.098 43.2414 37.6916 42.0071 37.6234C40.9579 37.566 40.1967 38.4916 40.0836 40.0165C39.9362 41.9934 40.687 43.5433 42.3362 44.4726C42.7785 44.7201 43.5602 44.573 44.0745 44.3398C44.7054 44.0528 44.8219 43.3783 44.6334 42.6464C44.4482 41.9324 44.3591 41.1933 44.2254 40.465ZM23.88 17.4059C22.2377 17.3916 21.2845 18.4894 21.7816 19.7093C22.2617 20.8825 24.5314 21.227 25.3406 20.2547C25.8 19.7021 25.9028 19.0958 25.6286 18.4284C25.2788 17.571 24.5451 17.4561 23.88 17.4095V17.4059ZM20.4513 32.5466C19.3302 32.4964 18.5793 33.1063 18.5347 34.1001C18.4936 35.0617 19.313 35.7577 20.5439 35.8043C21.4834 35.8402 22.3439 35.1514 22.3817 34.3333C22.4297 33.2965 21.6822 32.604 20.4479 32.5466H20.4513Z" fill="white"/>
<path d="M3.40862 103.564C3.40862 99.9799 3.36747 96.3921 3.42233 92.8078C3.45662 90.4578 3.73776 88.1078 3.72062 85.7577C3.68291 80.8926 3.51833 76.0239 3.4189 71.1588C3.40519 70.4125 3.4429 69.6663 3.50805 68.9236C3.56976 68.1953 3.94691 67.8114 4.69778 67.8185C6.84752 67.8401 8.7744 68.5289 10.5744 69.7488C11.1401 70.1327 11.8739 70.452 12.5322 70.4592C21.3574 70.5525 30.1827 70.5812 39.0045 70.6386C40.4617 70.6493 41.1988 69.5479 42.0594 68.5971C42.704 67.8867 43.3623 67.1835 44.0891 66.5735C44.7714 65.9995 45.6115 65.9851 46.3417 66.4623C48.1246 67.6355 49.8972 68.8339 51.6047 70.1183C51.951 70.3767 52.2458 71.1588 52.1224 71.5391C51.9784 71.984 51.3715 72.4971 50.9189 72.5509C49.6778 72.6908 48.4126 72.5939 47.1578 72.6119C46.0743 72.6298 44.9806 72.5832 43.9143 72.7482C43.4343 72.8236 42.8274 73.2505 42.6354 73.6918C42.4948 74.0111 42.8308 74.7144 43.1394 75.0624C43.5509 75.5288 44.1303 75.8445 44.6686 76.171C45.0594 76.4078 45.5052 76.5549 45.9235 76.7415C47.8126 77.5918 47.9361 77.9829 46.8526 79.7696C45.9646 81.237 46.2217 82.1161 47.6858 82.9484C49.0984 83.7557 50.3704 84.746 51.2584 86.2062C51.447 86.5183 51.8721 86.6798 52.0538 86.9955C52.2938 87.4189 52.5715 87.9535 52.5098 88.3876C52.4653 88.7033 51.927 89.0514 51.5464 89.1841C51.0149 89.3671 50.4184 89.4424 49.8561 89.4173C47.2298 89.2989 44.8709 90.1851 42.56 91.3619C39.9097 92.7109 37.3073 94.1497 35.1439 96.2701C34.5336 96.8693 34.0639 97.759 33.8273 98.6058C33.673 99.1619 33.8959 100.001 34.2353 100.5C34.7565 101.261 35.4833 101.889 36.193 102.481C37.8525 103.862 38.5622 105.566 38.0342 107.766C37.9862 107.966 37.9691 108.178 37.9108 108.379C37.6776 109.204 37.4651 110.04 38.2776 110.657C38.8639 111.102 40.2491 110.944 40.9245 110.263C42.1108 109.064 43.2286 107.791 44.3737 106.542C44.9566 105.907 45.6012 105.398 46.4823 105.796C47.1098 106.076 47.7852 106.359 48.2721 106.829C49.6092 108.124 50.9121 109.466 52.1018 110.905C52.4378 111.31 52.5784 112.214 52.3795 112.692C52.215 113.09 51.4195 113.402 50.9018 113.402C42.3646 113.431 33.8239 113.563 25.2935 113.319C21.2957 113.205 17.3117 113.363 13.3207 113.273C12.923 113.266 12.5219 113.309 12.1242 113.348C11.3767 113.424 10.9276 113.854 10.5539 114.55C10.235 115.142 9.76527 115.817 9.20298 116.057C7.64639 116.728 5.98694 117.097 4.28634 116.71C3.13433 116.448 2.84632 116.021 2.87718 114.747C2.93204 112.598 3.03147 110.449 3.07604 108.3C3.1069 106.718 3.0829 105.136 3.0829 103.557C3.18919 103.557 3.29547 103.557 3.40176 103.557L3.40862 103.564ZM10.1767 90.6479C10.1767 95.5776 10.1767 100.507 10.1767 105.437C10.1767 105.764 10.1836 106.094 10.211 106.42C10.2727 107.141 10.6567 107.539 11.339 107.679C12.9196 108.006 14.651 107.22 15.2133 105.627C15.7619 104.074 16.2934 102.423 16.3756 100.794C16.5916 96.5463 16.6088 92.284 16.6019 88.0288C16.5951 84.685 16.4339 81.3447 16.3311 78.0008C16.2796 76.4006 16.6225 75.8589 18.1105 76.0813C19.7837 76.3289 21.4774 76.7522 23.0374 77.4232C24.5735 78.0833 25.9861 78.3955 27.5701 77.7389C29.4764 76.9496 31.4204 76.2571 33.3404 75.5001C33.7347 75.3422 34.1736 75.1592 34.4479 74.8507C34.7462 74.517 35.065 74.0111 35.041 73.6021C35.0067 73.0065 34.5336 72.6693 33.8856 72.6513C32.401 72.6155 30.9198 72.4755 29.4387 72.4863C24.2169 72.515 18.9917 72.5975 13.7699 72.6406C10.7356 72.6657 10.1767 73.229 10.1767 76.3935C10.1767 81.1438 10.1767 85.8941 10.1767 90.6479ZM23.1026 111.422C23.1026 111.386 23.1026 111.35 23.1026 111.31C24.9849 111.31 26.8741 111.425 28.7461 111.282C31.1187 111.102 32.1198 108.749 30.7861 106.66C30.265 105.846 29.6855 105.067 29.0821 104.314C27.6832 102.567 27.4706 100.629 28.3827 98.6309C28.8009 97.7124 29.449 96.8513 30.1518 96.1337C32.6273 93.6151 35.5827 91.9145 38.8536 90.7915C39.3919 90.6085 39.9199 90.3717 40.4308 90.1169C41.0925 89.7869 41.1474 89.2882 40.5714 88.811C39.9405 88.2907 39.2445 88.0683 38.4114 88.2226C33.529 89.1411 29.1198 91.2041 25.0432 94.1317C23.922 94.9354 23.3323 95.9579 23.082 97.3285C22.9174 98.2255 22.7049 99.1906 22.2317 99.9297C20.3426 102.872 18.354 105.746 16.3791 108.63C15.7208 109.588 15.8682 110.582 16.9071 111.034C17.4934 111.289 18.1757 111.382 18.8202 111.404C20.2465 111.457 21.6729 111.422 23.1026 111.422ZM23.1163 88.8576C23.1163 88.8576 23.0957 88.8576 23.082 88.8576C23.0957 89.0657 23.1026 89.2738 23.1232 89.4819C23.3357 91.5808 24.0523 92.0257 25.9106 91.1646C27.2375 90.5475 28.5129 89.8048 29.8638 89.2594C31.9861 88.4055 34.105 87.4117 36.3165 86.9596C38.6651 86.4825 40.8834 85.7721 43.0846 84.8356C44.6172 84.1827 45.0937 82.3959 44.8126 81.0612C44.6377 80.2253 44.1646 79.8629 43.352 79.8844C39.0148 79.9956 34.681 80.1176 30.3438 80.1786C28.7221 80.2002 27.0935 80.0674 25.4718 79.9921C24.2923 79.9382 23.8672 80.1786 23.5895 81.3124C23.3666 82.2309 23.178 83.1817 23.1334 84.1253C23.058 85.6967 23.1129 87.2754 23.1129 88.854L23.1163 88.8576Z" fill="white"/>
</svg>
